<svg width="25" height="22" viewBox="0 0 25 22" fill="none" xmlns="http://www.w3.org/2000/svg">
<path d="M0.0170898 7.60004C0.0170898 3.4579 3.37495 0.100037 7.51709 0.100037C11.6592 0.100037 15.0171 3.4579 15.0171 7.60004C15.0171 11.7422 11.6592 15.1 7.51709 15.1C3.37495 15.1 0.0170898 11.7422 0.0170898 7.60004Z" fill="#212529"/>
<path d="M9.01709 7.5C9.01709 3.35786 12.375 0 16.5171 0C20.6592 0 24.0171 3.35786 24.0171 7.5C24.0171 11.6421 20.6592 15 16.5171 15C12.375 15 9.01709 11.6421 9.01709 7.5Z" fill="#212529"/>
<path d="M11.9171 2.40002L22.0287 12.5117L13.3313 21.2091C12.5503 21.9901 11.2839 21.9901 10.5029 21.2091L1.80549 12.5117L11.9171 2.40002Z" fill="#212529"/>
</svg>
