<svg width="32" height="30" viewBox="0 0 32 30" fill="none" xmlns="http://www.w3.org/2000/svg">
<path d="M19.8068 9.35664L21.7804 4.48593C20.6746 4.00542 19.485 3.65286 18.2301 3.45212C17.2172 3.29009 16.2138 3.23529 15.2332 3.27886C8.97783 3.55683 3.64914 7.83774 2.69175 13.8226C2.61371 14.3105 2.5668 14.7966 2.54963 15.2793L8.43895 15.6019C8.44509 15.2866 8.47312 14.9686 8.52419 14.6494C9.1512 10.7298 13.0192 8.07349 17.2369 8.61021C17.3289 8.62191 17.421 8.63514 17.5133 8.6499C18.3308 8.78068 19.1005 9.02283 19.8068 9.35664Z" fill="#3CB462"/>
<path d="M21.5374 10.4566C23.5101 12.0928 24.5936 14.5828 24.1823 17.1542C23.9845 18.3904 23.4644 19.5009 22.7126 20.4253C22.1149 21.16 21.3709 21.7772 20.526 22.2462L24.4453 26.3246L24.4517 26.3313C24.6409 26.2032 24.8264 26.0704 25.008 25.9332C26.5979 24.7319 27.891 23.1871 28.7493 21.3909C29.23 20.3849 29.5743 19.2999 29.7579 18.1523C30.5707 13.0712 28.0068 8.17404 23.63 5.45517L21.5374 10.4566Z" fill="#3CB462"/>
<path d="M18.5156 23.0289C17.4677 23.2828 16.341 23.3372 15.1932 23.1536C12.6419 22.7455 10.5564 21.2526 9.40698 19.2743C9.09143 18.7313 8.84642 18.1517 8.68167 17.5479L2.6325 17.1571C2.87273 19.09 3.58413 20.9253 4.67078 22.541C6.72685 25.5979 10.1264 27.868 14.2196 28.5228C17.261 29.0093 20.2167 28.5291 22.7275 27.3218L18.5156 23.0289Z" fill="#3CB462"/>
<path d="M24.4347 26.3319L18.0432 19.6783L22.7126 20.4253L28.7493 21.3909L30.9829 21.7482L31.0171 21.7537L30.9829 21.7775L25.008 25.9332L24.4453 26.3246L24.4347 26.3319Z" fill="#3CB462"/>
<path d="M24.4347 26.3319L18.0432 19.6783L22.7126 20.4253L28.7493 21.3909L30.9829 21.7482L31.0171 21.7537L30.9829 21.7775L25.008 25.9332L24.4453 26.3246L24.4347 26.3319Z" fill="#3CB462"/>
<path d="M21.9458 4.37573L18.7359 12.5988L17.2369 8.61021L15.2332 3.27886L14.3778 1.00288L21.9458 4.37573Z" fill="#3CB462"/>
<path d="M21.9458 4.37573L18.7359 12.5988L17.2369 8.61021L15.2332 3.27886L14.3778 1.00288L21.9458 4.37573Z" fill="#3CB462"/>
<path d="M2.59243 16.958L12.0706 17.4372L9.40698 19.2743L4.67078 22.541L1.65816 24.6188L2.59243 16.958Z" fill="#3CB462"/>
<path d="M2.59243 16.958L12.0706 17.4372L9.40698 19.2743L4.67078 22.541L1.65816 24.6188L2.59243 16.958Z" fill="#3CB462"/>
<path fill-rule="evenodd" clip-rule="evenodd" d="M30.9829 21.7775V21.7482L28.7493 21.3909C29.23 20.3849 29.5743 19.2999 29.7579 18.1523C30.5707 13.0712 28.0068 8.17404 23.63 5.45517L21.5374 10.4566C23.5101 12.0928 24.5936 14.5828 24.1823 17.1542C23.9845 18.3904 23.4644 19.5009 22.7126 20.4253L18.0432 19.6783L24.4347 26.3319L24.4453 26.3246L24.4517 26.3313C24.6409 26.2032 24.8264 26.0704 25.008 25.9332L30.9829 21.7775ZM15.2332 3.27886C8.97783 3.55683 3.64914 7.83774 2.69175 13.8226C2.61371 14.3105 2.5668 14.7966 2.54963 15.2793L8.43895 15.6019C8.44509 15.2866 8.47312 14.9686 8.52419 14.6494C9.1512 10.7298 13.0192 8.07349 17.2369 8.61021L18.7359 12.5988L21.9458 4.37573L14.3778 1.00288L15.2332 3.27886ZM18.5156 23.0289C17.4677 23.2828 16.341 23.3372 15.1932 23.1536C12.6419 22.7455 10.5564 21.2526 9.40698 19.2743L12.0706 17.4372L2.59243 16.958L1.65816 24.6188L4.67078 22.541C6.72685 25.5979 10.1264 27.868 14.2196 28.5228C17.261 29.0093 20.2167 28.5291 22.7275 27.3218L18.5156 23.0289Z" fill="#3CB462"/>
</svg>
