<svg width="80" height="65" viewBox="0 0 80 65" fill="none" xmlns="http://www.w3.org/2000/svg">
<path d="M0 4C0 1.79086 1.79086 0 4 0H76C78.2091 0 80 1.79086 80 4V60C80 62.2091 78.2091 64 76 64H4C1.79086 64 0 62.2091 0 60V4Z" fill="#3CB462"/>
<path d="M25.9771 17.5C25.9771 15.0147 27.9918 13 30.4771 13C32.9623 13 34.9771 15.0147 34.9771 17.5C34.9771 19.9853 32.9623 22 30.4771 22C27.9918 22 25.9771 19.9853 25.9771 17.5Z" fill="#212529"/>
<path d="M41 45L26 30L11 45H41Z" fill="#212529"/>
<path d="M68.0688 45L49.0688 26L30.0688 45H68.0688Z" fill="#212529"/>
<path d="M49.2526 64H48.8851L49.0688 64.1838L49.2526 64Z" fill="#212529"/>
</svg>
